<?xml version="1.0" encoding="utf-8"?>
<!-- Generator: Adobe Illustrator 27.6.1, SVG Export Plug-In . SVG Version: 6.00 Build 0)  -->
<svg version="1.1"
	 id="Layer_1" xmlns:dc="http://purl.org/dc/elements/1.1/" xmlns:inkscape="http://www.inkscape.org/namespaces/inkscape" xmlns:rdf="http://www.w3.org/1999/02/22-rdf-syntax-ns#" xmlns:cc="http://creativecommons.org/ns#" xmlns:svg="http://www.w3.org/2000/svg" xmlns:sodipodi="http://sodipodi.sourceforge.net/DTD/sodipodi-0.dtd"
	 xmlns="http://www.w3.org/2000/svg" xmlns:xlink="http://www.w3.org/1999/xlink" x="0px" y="0px" viewBox="0 0 72 88.1"
	 style="enable-background:new 0 0 72 88.1;" xml:space="preserve">
<path d="M12.8,0c-0.4,0-0.9,0.2-1.2,0.6C4.5,7.1,0,16.6,0,27s4.5,19.9,11.7,26.5c0.7,0.8,2,0.9,2.8,0.2c0.8-0.7,0.9-2,0.2-2.8
	c-0.1-0.1-0.2-0.2-0.3-0.3C8,44.7,4,36.4,4,27S8,9.4,14.3,3.5c0.8-0.7,0.9-2,0.2-2.8C14.1,0.3,13.6,0,13,0C13,0,12.9,0,12.8,0z
	 M58.9,0c-1.1,0-2,1-1.9,2.1c0,0.5,0.3,1.1,0.7,1.4C64,9.4,68,17.7,68,27s-4,17.7-10.3,23.5c-0.9,0.7-1.1,1.9-0.4,2.8
	s1.9,1.1,2.8,0.4c0.1-0.1,0.2-0.2,0.3-0.3C67.5,46.9,72,37.5,72,27S67.5,7.1,60.3,0.6C60,0.2,59.4,0,58.9,0z M22.4,9
	c-0.1,0-0.1,0-0.2,0c-0.4,0.1-0.7,0.2-1,0.5C16.2,13.7,13,20,13,27c0,5.9,2.2,11.3,5.8,15.3c0.7,0.8,2,0.9,2.8,0.2s0.9-2,0.2-2.8
	c-3-3.4-4.8-7.8-4.8-12.7c0-5.8,2.6-11,6.7-14.5c0.9-0.7,1-1.9,0.3-2.8C23.6,9.3,23,9,22.4,9z M49.4,9c-1.1,0.1-1.9,1-1.8,2.1
	c0,0.5,0.3,1,0.7,1.4C52.4,16.1,55,21.2,55,27c0,4.9-1.8,9.3-4.8,12.7c-0.7,0.8-0.7,2.1,0.2,2.8c0.8,0.7,2.1,0.7,2.8-0.2
	C56.8,38.3,59,32.9,59,27c0-7-3.2-13.3-8.1-17.5C50.5,9.2,49.9,9,49.4,9z M36,17c-5.5,0-10,4.5-10,10c0,3.2,1.5,6.1,3.9,7.9L14,85.4
	c-0.4,1,0.1,2.2,1.2,2.6c1,0.4,2.2-0.1,2.6-1.2c0-0.1,0.1-0.2,0.1-0.2L22.1,73H43c1.1,0,2-0.9,2-2c0-1.1-0.9-2-2-2c0,0,0,0-0.1,0
	H23.4l3.8-12h17.7l9.3,29.6c0.3,1.1,1.3,1.7,2.4,1.5c1.1-0.3,1.7-1.3,1.5-2.4c0-0.1,0-0.2-0.1-0.2L42.1,35c2.4-1.8,3.9-4.7,3.9-7.9
	C46,21.5,41.5,17,36,17z M36,21c3.3,0,6,2.7,6,6s-2.7,6-6,6s-6-2.7-6-6S32.7,21,36,21z M33.6,36.7c0.8,0.2,1.6,0.3,2.4,0.3
	s1.7-0.1,2.4-0.3L43.6,53H28.4L33.6,36.7z"/>
</svg>
