<?xml version="1.0" encoding="utf-8"?>
<!-- Generator: Adobe Illustrator 27.6.1, SVG Export Plug-In . SVG Version: 6.00 Build 0)  -->
<svg version="1.1" id="Layer_1" xmlns="http://www.w3.org/2000/svg" xmlns:xlink="http://www.w3.org/1999/xlink" x="0px" y="0px"
	 viewBox="0 0 85.9 92.5" style="enable-background:new 0 0 85.9 92.5;" xml:space="preserve">
<path d="M38.8,33.6c0,0.7-0.6,1.3-1.3,1.3H10.1c-0.7,0-1.3-0.6-1.3-1.3s0.6-1.3,1.3-1.3h27.3C38.2,32.3,38.8,32.9,38.8,33.6z
	 M31.1,46.4H9.7c-0.7,0-1.3,0.6-1.3,1.3S9,49,9.7,49h21.3c0.7,0,1.3-0.6,1.3-1.3C32.4,46.9,31.8,46.4,31.1,46.4z M31.1,60.4H9.7
	c-0.7,0-1.3,0.6-1.3,1.3S9,63,9.7,63h21.3c0.7,0,1.3-0.6,1.3-1.3C32.4,61,31.8,60.4,31.1,60.4z M31.1,74.4H9.7
	c-0.7,0-1.3,0.6-1.3,1.3S9,77,9.7,77h21.3c0.7,0,1.3-0.6,1.3-1.3S31.8,74.4,31.1,74.4z M85.9,78.7c0,1.2-0.4,2.3-1.3,3.1L84.4,82
	c-0.8,0.8-2,1.3-3.1,1.3c-1.1,0-2.3-0.4-3.2-1.3L70,73.8v8.4c0,0.7-0.6,1.3-1.3,1.3h-8.8v7.7c0,0.7-0.6,1.3-1.3,1.3H1.3
	c-0.7,0-1.3-0.6-1.3-1.3V10.3C0,9.6,0.6,9,1.3,9h8.9V1.3c0-0.7,0.6-1.3,1.3-1.3H53c0.3,0,0.7,0.1,0.9,0.4l15.7,15.7
	c0.2,0.2,0.4,0.6,0.4,0.9v24c2.4,2.3,4.2,5.2,5.1,8.6c1.3,4.8,0.6,9.8-1.9,14.1c0,0.1-0.1,0.2-0.1,0.2c2.5,2.4,5,5,7.5,7.5
	c1.3,1.3,2.7,2.7,4,4.1C85.5,76.4,85.9,77.5,85.9,78.7z M71.6,66.2c-0.8,1-1.7,1.9-2.7,2.7l5.2,5.2l2.7-2.7
	C75.1,69.6,73.3,67.9,71.6,66.2z M57.1,38.5c-1.4,0-2.8,0.2-4.1,0.5c-4.1,1.1-7.6,3.8-9.7,7.5s-2.7,8-1.6,12.1s3.8,7.6,7.5,9.7
	c3.7,2.1,8,2.7,12.1,1.6s7.6-3.8,9.7-7.5c2.1-3.7,2.7-8,1.6-12.1C70.7,43.2,64.2,38.5,57.1,38.5z M44.2,24.7h11.2L44.2,13.5V24.7z
	 M12.8,9h30c0.3,0,0.7,0.1,0.9,0.4l15.7,15.7c0.2,0.2,0.4,0.6,0.4,0.9v10c2.7,0.4,5.3,1.4,7.5,2.9V17.5L52.5,2.6H12.8V9z M57.2,89.9
	V73.1c0,0-0.1,0-0.1,0c-3.2,0-6.4-0.8-9.3-2.5c-4.3-2.5-7.4-6.5-8.7-11.3s-0.6-9.8,1.9-14.1s6.5-7.4,11.3-8.7
	c1.6-0.4,3.3-0.6,4.9-0.6v-8.5H42.9c-0.7,0-1.3-0.6-1.3-1.3V11.7H2.6v78.2C2.6,89.9,57.2,89.9,57.2,89.9z M67.4,71.1l-0.7-0.7
	c-1.5,0.9-3.1,1.6-4.7,2c-0.7,0.2-1.4,0.3-2.1,0.4v8h7.5C67.4,80.9,67.4,71.1,67.4,71.1z M83.3,78.7c0-0.5-0.2-0.9-0.5-1.3
	c-1.4-1.4-2.7-2.7-4.1-4.1c0,0-0.1-0.1-0.1-0.1l-2.7,2.7l4.2,4.2c0.7,0.7,1.8,0.7,2.5,0l0.2-0.2C83.2,79.6,83.3,79.2,83.3,78.7z
	 M70.7,50.8c1,3.6,0.5,7.4-1.4,10.7s-4.9,5.6-8.6,6.6c-1.2,0.3-2.4,0.5-3.7,0.5c-2.4,0-4.8-0.6-7-1.9c-3.3-1.9-5.6-4.9-6.6-8.6
	c-2-7.5,2.5-15.2,10-17.2C61,38.8,68.7,43.3,70.7,50.8z M68.2,51.5c-1.6-6.1-7.9-9.7-14-8.1s-9.7,7.9-8.1,14c0.8,3,2.7,5.4,5.3,7
	c2.7,1.5,5.7,1.9,8.7,1.1c3-0.8,5.4-2.7,7-5.3C68.6,57.5,69,54.5,68.2,51.5z M63.2,49.1l-7.7,8.1l-4.7-3.3c-0.6-0.4-1.4-0.3-1.8,0.3
	s-0.3,1.4,0.3,1.8l5.6,4c0.2,0.2,0.5,0.2,0.8,0.2c0.3,0,0.7-0.1,1-0.4l8.5-8.9c0.5-0.5,0.5-1.4-0.1-1.9
	C64.5,48.5,63.7,48.6,63.2,49.1z"/>
</svg>
