<?xml version="1.0" encoding="utf-8"?>
<!-- Generator: Adobe Illustrator 27.6.1, SVG Export Plug-In . SVG Version: 6.00 Build 0)  -->
<svg version="1.1" id="Layer_1" xmlns="http://www.w3.org/2000/svg" xmlns:xlink="http://www.w3.org/1999/xlink" x="0px" y="0px"
	 viewBox="0 0 63 63" style="enable-background:new 0 0 63 63;" xml:space="preserve">
<g>
	<path d="M32,58.4c6,6,15.8,6.1,21.9,0.1l0,0c2.2-1.9,2.6-5.9,0.1-8.3l-4.9-4.9c-1.8-1.8-4.7-1.8-6.5,0c-0.1,0.1-3.2,3.2-3,3
		c-0.9,0.9-2.5,0.9-3.3,0L14.7,26.7c-0.9-0.9-0.9-2.4,0-3.3c0.1-0.1,3.1-3.1,3-3c1.8-1.8,1.8-4.8,0-6.6l-4.9-4.9
		C11,7.1,8.3,6.8,6.2,7.8C3.8,8.9,0,13.7,0,19.9c0,4.2,1.6,8.1,4.6,11L32,58.4z M43.6,46.3c1.2-1.2,3.3-1.2,4.5,0l4.9,4.9
		c1.6,1.6,1.7,4,0.3,5.7L43.1,46.8L43.6,46.3z M16.7,14.9c1.2,1.2,1.2,3.3,0,4.5l-0.5,0.5L6,9.7c1.8-1.4,4.2-1.2,5.7,0.3L16.7,14.9z
		 M4.9,10.7l10.2,10.2l-1.5,1.5c-1.5,1.5-1.5,3.9,0,5.4l21.5,21.5c1.5,1.5,3.9,1.5,5.4,0l1.5-1.5L52.2,58c-5.6,4.9-14,4.6-19.2-0.7
		L5.6,29.9c-2.7-2.7-4.1-6.2-4.1-10C1.5,16.5,2.7,13.3,4.9,10.7z"/>
	<path d="M63,32.5C63,14.6,48.4,0,30.5,0v1.5c17.1,0,31,13.9,31,31H63z"/>
	<path d="M56.5,32.5c0-14.3-11.7-26-26-26V8C44,8,55,19,55,32.5H56.5z"/>
	<path d="M50,32.5C50,21.7,41.3,13,30.5,13v1.5c10,0,18.1,8.1,18.1,18.1L50,32.5L50,32.5z"/>
	<path d="M42.1,32.5h1.5c0-7.2-5.9-13-13-13V21C36.9,20.9,42.1,26.1,42.1,32.5z"/>
	<path d="M30.5,27.4c2.8,0,5.1,2.3,5.1,5.1h1.5c0-3.6-2.9-6.6-6.6-6.6C30.5,25.9,30.5,27.4,30.5,27.4z"/>
</g>
</svg>
