<?xml version="1.0" encoding="utf-8"?>
<!-- Generator: Adobe Illustrator 27.6.1, SVG Export Plug-In . SVG Version: 6.00 Build 0)  -->
<svg version="1.1" id="Layer_1" xmlns="http://www.w3.org/2000/svg" xmlns:xlink="http://www.w3.org/1999/xlink" x="0px" y="0px"
	 viewBox="0 0 93 88.2" style="enable-background:new 0 0 93 88.2;" xml:space="preserve">
<path d="M85.2,46c-2.7,0-5.2,1.4-6.6,3.7l-11.8-5c2.4-7.2-0.7-15-7.2-18.8l5-10.6c4.2,1.2,8.5-1.2,9.7-5.4c1.2-4.2-1.2-8.5-5.4-9.7
	S60.2,1.5,59,5.7c-0.9,3.2,0.3,6.7,3.1,8.6l-5,10.6c-6.3-2.4-13.5-0.5-17.8,4.7L25.7,20c1.9-3.9,0.3-8.6-3.6-10.5s-8.6-0.3-10.5,3.6
	s-0.3,8.6,3.6,10.5c3,1.5,6.7,0.8,9-1.6l13.6,9.6c-2.6,4.4-2.9,9.7-0.9,14.4L14,58.1c-2.6-3.4-7.5-4.1-10.9-1.5
	c-3.4,2.6-4.1,7.5-1.5,10.9s7.5,4.1,10.9,1.5c2.7-2,3.7-5.5,2.7-8.7l22.9-12c2.9,4.6,7.9,7.4,13.3,7.4l1.2,17.1
	c-4.2,1-6.8,5.2-5.8,9.4c1,4.2,5.2,6.8,9.4,5.8c4.2-1,6.8-5.2,5.8-9.4c-0.8-3.3-3.6-5.7-6.9-6L54,55.5c5-0.8,9.4-3.9,11.7-8.4
	l11.8,5c-1,4.2,1.6,8.4,5.8,9.4c4.2,1,8.4-1.6,9.4-5.8c1-4.2-1.6-8.4-5.8-9.4C86.4,46.1,85.8,46,85.2,46L85.2,46z M66.5,2.6
	c2.9,0,5.3,2.4,5.3,5.3s-2.4,5.3-5.3,5.3c-2.9,0-5.3-2.4-5.3-5.3c0,0,0,0,0,0C61.3,4.9,63.6,2.6,66.5,2.6z M18.6,21.9
	c-2.9,0-5.3-2.4-5.3-5.3s2.4-5.3,5.3-5.3s5.3,2.4,5.3,5.3c0,0,0,0,0,0C23.9,19.5,21.6,21.9,18.6,21.9z M7.8,68.1
	c-2.9,0-5.3-2.4-5.3-5.3c0-2.9,2.4-5.3,5.3-5.3c2.9,0,5.3,2.4,5.3,5.3c0,0,0,0,0,0C13.1,65.7,10.7,68.1,7.8,68.1z M59.8,80.4
	c0,2.9-2.4,5.3-5.3,5.3c-2.9,0-5.3-2.4-5.3-5.3c0-2.9,2.4-5.3,5.3-5.3c0,0,0,0,0,0C57.4,75.1,59.8,77.5,59.8,80.4L59.8,80.4z
	 M51.6,53.2c-7.4,0-13.4-6-13.4-13.4s6-13.4,13.4-13.4c7.4,0,13.4,6,13.4,13.4C64.9,47.2,59,53.2,51.6,53.2L51.6,53.2z M85.2,59.1
	c-2.9,0-5.3-2.4-5.3-5.3c0-2.9,2.4-5.3,5.3-5.3c2.9,0,5.3,2.4,5.3,5.3c0,0,0,0,0,0C90.4,56.8,88.1,59.1,85.2,59.1L85.2,59.1z"/>
</svg>
