<svg width="220" height="37" viewBox="0 0 220 37" fill="none" xmlns="http://www.w3.org/2000/svg">
<path fill-rule="evenodd" clip-rule="evenodd" d="M75.9219 1.87442H144.012V6.61562H127.556C122.364 6.50536 120.472 9.06341 120.472 13.5841V35.0849H100.034V13.6282C100.056 8.44595 97.8119 6.61562 93.3239 6.61562H75.9439L75.9219 1.87442Z" fill="#284CFF"/>
<path d="M22.8361 1.87442H2.24414V35.0849H22.8361V1.87442Z" fill="#284CFF"/>
<path d="M48.444 35.0628C45.496 35.0628 41.954 33.9382 38.456 31.733C33.792 28.778 27.016 24.544 24.75 23.0444V23.4855V17.3109V17.2668C27.72 19.2294 35.772 24.3235 40.92 27.499C43.208 28.9103 46.442 30.3437 49.038 30.3437H70.334V35.0849" fill="#284CFF"/>
<path d="M217.756 1.87443H155.914C155.914 1.87443 149.732 1.54365 149.644 7.49772V14.3118C149.644 14.3118 149.38 19.6484 155.892 19.6484H176.088V17.2668H173.118C173.118 17.2668 170.302 17.2227 170.016 14.3118V10.0337C170.016 10.0337 169.906 6.70384 173.778 6.59358H217.734V1.87443H217.756Z" fill="#284CFF"/>
<path d="M149.644 35.0408H211.486C211.486 35.0408 217.668 35.3716 217.756 29.4175V22.6034C217.756 22.6034 218.02 17.2668 211.508 17.2668H191.312V19.6484H194.26C194.26 19.6484 197.076 19.6925 197.362 22.6034V26.8595C197.362 26.8595 197.472 30.1893 193.6 30.2996H149.644V35.0408Z" fill="#284CFF"/>
<path d="M24.75 1.87443H64.064C64.064 1.87443 70.246 1.54365 70.334 7.49772V14.3118C70.334 14.3118 70.598 19.6043 64.086 19.6043L43.89 19.6484V17.2668H46.86C46.86 17.2668 49.676 17.2227 49.962 14.3118V10.0337C49.962 10.0337 50.072 6.70384 46.2 6.59358H24.772V1.87443H24.75Z" fill="#284CFF"/>
</svg>
