<?xml version="1.0" encoding="utf-8"?>
<!-- Generator: Adobe Illustrator 27.6.1, SVG Export Plug-In . SVG Version: 6.00 Build 0)  -->
<svg version="1.1" id="Layer_1" xmlns="http://www.w3.org/2000/svg" xmlns:xlink="http://www.w3.org/1999/xlink" x="0px" y="0px"
	 viewBox="0 0 64 65" style="enable-background:new 0 0 64 65;" xml:space="preserve">
<g>
	<path d="M32.1,36.1c9.9,0,17.9-8,17.9-17.9S42,0.3,32.1,0.3s-17.9,8-17.9,17.9S22.1,36.1,32.1,36.1z M32.1,3.9
		c7.9,0,14.3,6.4,14.3,14.3s-6.4,14.3-14.3,14.3s-14.3-6.4-14.3-14.3S24.2,3.9,32.1,3.9z"/>
	<path d="M32.1,39C11.7,39,0.5,47.5,0.5,62.8V63c0,1,0.8,1.8,1.8,1.8S4.1,64,4.1,63v-0.2c0-13.4,9.4-20.2,27.9-20.2S60,49.3,60,62.8
		c0,0,0,0.1,0,0.2c0,1,0.8,1.7,1.7,1.7l0,0c1,0,1.7-0.8,1.8-1.8c0,0,0-0.1,0-0.2C63.6,47.4,52.4,39,32.1,39z"/>
</g>
</svg>
