<?xml version="1.0" encoding="utf-8"?>
<!-- Generator: Adobe Illustrator 27.6.1, SVG Export Plug-In . SVG Version: 6.00 Build 0)  -->
<svg version="1.1" id="Layer_1" xmlns:xodm="http://www.corel.com/coreldraw/odm/2003"
	 xmlns="http://www.w3.org/2000/svg" xmlns:xlink="http://www.w3.org/1999/xlink" x="0px" y="0px" viewBox="0 0 7.9 3.8"
	 style="enable-background:new 0 0 7.9 3.8;" xml:space="preserve">
<g>
	<path d="M7.5,1.9l0.1-0.2L2.3,0.3L1.8,2.2l1.6,0.5C4.1,2.3,4.8,2.1,5.5,2C6.2,1.9,6.9,1.9,7.5,1.9z M1.9,3.7H0.1
		C0.1,3.7,0,3.6,0,3.6V3.1C0,3,0.1,3,0.1,3H2l0.1-0.4L1.6,2.4c-0.1,0-0.1-0.1-0.1-0.2l0.6-2.1C2.1,0,2.2,0,2.2,0l5.5,1.6
		c0.1,0,0.1,0.1,0.1,0.2L7.8,2.1c0,0.1-0.1,0.1-0.1,0.1c-0.2,0-0.4,0-0.5-0.1l0,0.1l0.3,0c0.1,0,0.1,0.1,0.1,0.1c0,0,0,0,0,0
		L7.2,3.1c0,0.1-0.1,0.1-0.2,0.1c0,0,0,0,0,0L6.8,3.1L6.7,3.4c0,0.1-0.1,0.1-0.2,0.1L3.8,2.7c0,0,0,0,0,0c-0.1,0-0.2,0.1-0.4,0.1
		c0,0-0.1,0-0.1,0L2.8,2.7l-0.3,1c0,0.1-0.1,0.1-0.2,0.1C2.4,3.8,1.9,3.7,1.9,3.7z M1.9,3.2H0.3v0.2h1.6L1.9,3.2z M2.4,2.6L2.1,3.5
		l0.2,0.1l0.2-0.9C2.6,2.7,2.4,2.6,2.4,2.6z M6.9,2.8L7,2.9l0.1-0.4L7,2.5L6.9,2.8z M4.2,2.6l2.3,0.6l0.3-1.1c-0.4,0-0.8,0-1.2,0.1
		C5.1,2.3,4.7,2.4,4.2,2.6z"/>
</g>
</svg>
