<?xml version="1.0" encoding="utf-8"?>
<!-- Generator: Adobe Illustrator 27.6.1, SVG Export Plug-In . SVG Version: 6.00 Build 0)  -->
<svg version="1.1" id="Layer_1" xmlns="http://www.w3.org/2000/svg" xmlns:xlink="http://www.w3.org/1999/xlink" x="0px" y="0px"
	 viewBox="0 0 30 25.1" style="enable-background:new 0 0 30 25.1;" xml:space="preserve">
<g>
	<path d="M29.9,4.1c-0.1-0.2-0.3-0.3-0.5-0.3H12.6c-0.2,0-0.4,0.2-0.4,0.4c0,0.2,0.2,0.4,0.4,0.4h16.6L26,16H10
		c-0.1,0-0.2-0.1-0.2-0.2l-3-15.5C6.8,0.1,6.7,0,6.5,0H0.4C0.2,0,0,0.2,0,0.4s0.2,0.4,0.4,0.4h5.8L9.1,16c0.1,0.5,0.5,0.8,0.9,0.8
		h16c0.3,0,0.6-0.2,0.7-0.5l3.2-11.6C30,4.4,30,4.2,29.9,4.1z"/>
	<path d="M26.5,22.3c0-1.6-1.3-2.9-2.8-2.9c-1.5,0-2.8,1.3-2.8,2.9c0,1.6,1.3,2.9,2.8,2.9C25.2,25.1,26.5,23.8,26.5,22.3z
		 M21.7,22.3c0-1.1,0.9-2.1,2-2.1s2,1,2,2.1c0,1.1-1,2.1-2.1,2.1C22.6,24.4,21.7,23.4,21.7,22.3z"/>
	<path d="M14.7,22.3c0-1.6-1.3-2.9-2.8-2.9s-2.8,1.3-2.8,2.9c0,1.6,1.3,2.9,2.8,2.9S14.7,23.8,14.7,22.3z M9.9,22.3
		c0-1.1,0.9-2.1,2-2.1s2,1,2,2.1c0,1.1-1,2.1-2.1,2.1S9.9,23.4,9.9,22.3z"/>
</g>
</svg>
