<?xml version="1.0" encoding="utf-8"?>
<!-- Generator: Adobe Illustrator 27.6.1, SVG Export Plug-In . SVG Version: 6.00 Build 0)  -->
<svg version="1.1" id="Layer_1" xmlns="http://www.w3.org/2000/svg" xmlns:xlink="http://www.w3.org/1999/xlink" x="0px" y="0px"
	 viewBox="0 0 92.3 62" style="enable-background:new 0 0 92.3 62;" xml:space="preserve">
<path d="M17.6,15.3c2.4,0,4.3-1.9,4.3-4.3c0-2.4-1.9-4.3-4.3-4.3c-2.4,0-4.3,1.9-4.3,4.3c0,0,0,0,0,0C13.3,13.4,15.3,15.3,17.6,15.3
	z M17.6,8.2c1.6,0,2.8,1.3,2.8,2.8s-1.3,2.8-2.8,2.8s-2.8-1.3-2.8-2.8l0,0C14.8,9.4,16.1,8.2,17.6,8.2z M46.1,11
	c0,2.4,1.9,4.3,4.3,4.3c2.4,0,4.3-1.9,4.3-4.3s-1.9-4.3-4.3-4.3c0,0,0,0,0,0C48,6.7,46.1,8.6,46.1,11z M53.2,11
	c0,1.6-1.3,2.8-2.8,2.8s-2.8-1.3-2.8-2.8c0-1.6,1.3-2.8,2.8-2.8c0,0,0,0,0,0C51.9,8.2,53.2,9.4,53.2,11z M17.6,36.6
	c2.4,0,4.3-1.9,4.3-4.3c0-2.4-1.9-4.3-4.3-4.3c-2.4,0-4.3,1.9-4.3,4.3c0,0,0,0,0,0C13.3,34.6,15.3,36.6,17.6,36.6z M17.6,29.4
	c1.6,0,2.8,1.3,2.8,2.8s-1.3,2.8-2.8,2.8s-2.8-1.3-2.8-2.8l0,0C14.8,30.7,16.1,29.4,17.6,29.4z M46.1,32.2c0,2.4,1.9,4.3,4.3,4.4
	c2.4,0,4.3-1.9,4.4-4.3c0-2.4-1.9-4.3-4.3-4.4c0,0,0,0-0.1,0C48,28,46.1,29.9,46.1,32.2z M53.2,32.2c0,1.6-1.3,2.8-2.8,2.8
	s-2.8-1.3-2.8-2.8s1.3-2.8,2.8-2.8l0,0C51.9,29.4,53.2,30.7,53.2,32.2C53.2,32.2,53.2,32.2,53.2,32.2z M64.8,2H0v44.1h33v13.6H20
	v1.5h20v-1.5h-5.5V46.1h23.9v-1.5h-1v-3.5c0-2.1-1.8-3.9-3.9-3.9h-6.2c-2.2,0-4,1.8-4,4v3.4h-8.7V24.8h28.1v-1.5h-5.2v-3.4
	c-0.1-2.1-1.8-3.8-3.9-3.9h-6.3c-2.2,0-4,1.8-4,4v3.4h-8.7V3.4h30.2L64.8,2z M44.8,20c0-1.3,1.1-2.4,2.4-2.5c0,0,0,0,0.1,0h6.3
	c1.3,0,2.4,1.1,2.4,2.5v3.4H44.8L44.8,20z M23.1,44.6H12.1v-3.4c0-1.3,1.1-2.5,2.4-2.5c0,0,0,0,0.1,0h6.3c1.3,0.1,2.3,1.2,2.4,2.5
	V44.6z M44.8,41.2c0-1.3,1.1-2.5,2.4-2.5c0,0,0,0,0.1,0h6.3c1.3,0,2.4,1.1,2.4,2.5v3.4H44.8L44.8,41.2z M33.1,44.6h-8.4v-3.5
	c0-2.1-1.8-3.9-3.9-3.9h-6.3c-2.2,0-4,1.8-4,4v3.4h-9V24.8h31.6V44.6z M23.1,23.3H12.1v-3.4c0-1.3,1.1-2.4,2.4-2.5c0,0,0,0,0.1,0
	h6.3c1.3,0.1,2.3,1.1,2.4,2.5V23.3z M33,23.3h-8.3v-3.4c-0.1-2.1-1.8-3.8-3.9-3.9h-6.3c-2.2,0-4,1.8-4,4v3.4h-9V3.4h31.6L33,23.3z
	 M75.3,22.5c-6.2,0-11.2-5.1-11.2-11.3S69.1,0,75.3,0c6.2,0,11.2,5.1,11.2,11.3C86.6,17.5,81.5,22.5,75.3,22.5L75.3,22.5z M75.3,1.5
	c-5.4,0-9.8,4.4-9.8,9.8s4.4,9.8,9.8,9.8s9.8-4.4,9.8-9.8C85,5.9,80.7,1.5,75.3,1.5L75.3,1.5z M92.3,62H78.5v-1.5h12.3V38.9
	c0-7.4-6-13.4-13.4-13.4h-0.7c-3.6,0-7,1.4-9.5,3.9L66,30.5c-2.5,2.5-3.9,5.9-3.9,9.5v13.2H44.4v6.5h25.3V37.5h1.5v23.8H42.9v-9.5
	h17.7V40c0-4,1.6-7.8,4.4-10.5l1.1-1.1c2.8-2.8,6.6-4.3,10.5-4.3h0.7c8.2,0,14.9,6.7,14.9,14.9V62z"/>
</svg>
